<?xml version="1.0" encoding="UTF-8" standalone="no"?>
<!DOCTYPE svg PUBLIC "-//W3C//DTD SVG 1.1//EN" "http://www.w3.org/Graphics/SVG/1.1/DTD/svg11.dtd">
<svg width="100%" height="100%" viewBox="0 0 512 512" version="1.1" xmlns="http://www.w3.org/2000/svg" xmlns:xlink="http://www.w3.org/1999/xlink" xml:space="preserve" xmlns:serif="http://www.serif.com/" style="fill-rule:evenodd;clip-rule:evenodd;stroke-linejoin:round;stroke-miterlimit:2;">
    <g transform="matrix(0.544455,0,0,0.529432,-2.45889,7.43894)">
        <path d="M900.199,0L853.685,0C842.639,0 833.685,8.954 833.685,20L833.685,44.89C833.685,55.935 824.731,64.89 813.685,64.89L770.315,64.89C759.269,64.89 750.315,55.935 750.315,44.89L750.315,20C750.315,8.954 741.362,0 730.315,0L208.121,0C197.075,0 188.121,8.954 188.121,20L188.121,44.89C188.121,55.935 179.167,64.89 168.121,64.89L124.751,64.89C113.705,64.89 104.751,55.935 104.751,44.89L104.751,20C104.751,8.954 95.797,0 84.751,0L39.801,0C28.755,0 19.801,8.954 19.801,20L19.801,920C19.801,931.046 28.755,940 39.801,940L84.751,940C95.797,940 104.751,931.046 104.751,920L104.751,901.715C104.751,890.669 113.705,881.715 124.751,881.715L168.121,881.715C179.167,881.715 188.121,890.669 188.121,901.715L188.121,920C188.121,931.046 197.075,940 208.121,940L730.315,940C741.362,940 750.315,931.046 750.315,920L750.315,901.715C750.315,890.669 759.269,881.715 770.315,881.715L813.685,881.715C824.731,881.715 833.685,890.669 833.685,901.715L833.685,920C833.685,931.046 842.639,940 853.685,940L900.199,940C911.245,940 920.199,931.046 920.199,920L920.199,20C920.199,8.955 911.245,0 900.199,0ZM188.121,765.369C188.121,776.415 179.167,785.369 168.121,785.369L124.751,785.369C113.705,785.369 104.751,776.415 104.751,765.369L104.751,721.999C104.751,710.954 113.705,701.999 124.751,701.999L168.121,701.999C179.167,701.999 188.121,710.954 188.121,721.999L188.121,765.369ZM188.121,585.653C188.121,596.698 179.167,605.653 168.121,605.653L124.751,605.653C113.705,605.653 104.751,596.698 104.751,585.653L104.751,542.282C104.751,531.237 113.705,522.282 124.751,522.282L168.121,522.282C179.167,522.282 188.121,531.237 188.121,542.282L188.121,585.653ZM188.121,405.936C188.121,416.983 179.167,425.936 168.121,425.936L124.751,425.936C113.705,425.936 104.751,416.983 104.751,405.936L104.751,362.566C104.751,351.52 113.705,342.566 124.751,342.566L168.121,342.566C179.167,342.566 188.121,351.52 188.121,362.566L188.121,405.936ZM188.121,226.22C188.121,237.266 179.167,246.22 168.121,246.22L124.751,246.22C113.705,246.22 104.751,237.266 104.751,226.22L104.751,182.85C104.751,171.805 113.705,162.85 124.751,162.85L168.121,162.85C179.167,162.85 188.121,171.805 188.121,182.85L188.121,226.22ZM663.836,834.267C663.836,845.314 654.882,854.267 643.836,854.267L296.164,854.267C285.118,854.267 276.164,845.314 276.164,834.267L276.164,673.545C276.164,662.499 285.118,653.545 296.164,653.545L643.836,653.545C654.882,653.545 663.836,662.499 663.836,673.545L663.836,834.267ZM663.836,550.361C663.836,561.407 654.882,570.361 643.836,570.361L296.164,570.361C285.118,570.361 276.164,561.407 276.164,550.361L276.164,389.639C276.164,378.594 285.118,369.639 296.164,369.639L643.836,369.639C654.882,369.639 663.836,378.594 663.836,389.639L663.836,550.361ZM663.836,266.454C663.836,277.5 654.882,286.454 643.836,286.454L296.164,286.454C285.118,286.454 276.164,277.5 276.164,266.454L276.164,105.732C276.164,94.687 285.118,85.732 296.164,85.732L643.836,85.732C654.882,85.732 663.836,94.687 663.836,105.732L663.836,266.454ZM833.686,765.369C833.686,776.415 824.732,785.369 813.686,785.369L770.316,785.369C759.27,785.369 750.316,776.415 750.316,765.369L750.316,721.999C750.316,710.954 759.27,701.999 770.316,701.999L813.686,701.999C824.732,701.999 833.686,710.954 833.686,721.999L833.686,765.369ZM833.686,585.653C833.686,596.698 824.732,605.653 813.686,605.653L770.316,605.653C759.27,605.653 750.316,596.698 750.316,585.653L750.316,542.282C750.316,531.237 759.27,522.282 770.316,522.282L813.686,522.282C824.732,522.282 833.686,531.237 833.686,542.282L833.686,585.653ZM833.686,405.936C833.686,416.983 824.732,425.936 813.686,425.936L770.316,425.936C759.27,425.936 750.316,416.983 750.316,405.936L750.316,362.566C750.316,351.52 759.27,342.566 770.316,342.566L813.686,342.566C824.732,342.566 833.686,351.52 833.686,362.566L833.686,405.936ZM833.686,226.22C833.686,237.266 824.732,246.22 813.686,246.22L770.316,246.22C759.27,246.22 750.316,237.266 750.316,226.22L750.316,182.85C750.316,171.805 759.27,162.85 770.316,162.85L813.686,162.85C824.732,162.85 833.686,171.805 833.686,182.85L833.686,226.22Z" style="fill-rule:nonzero;"/>
    </g>
    <g transform="matrix(1.22967,0,0,1.14278,-59.6413,-33.634)">
        <rect x="158.037" y="69.976" width="195.342" height="370.066"/>
    </g>
    <g transform="matrix(1.56143,0,0,1.56143,-161.501,-67.7858)">
        <text x="234.922px" y="126.288px" style="font-family:'Charter-Italic', 'Charter', serif;font-style:italic;font-size:96px;fill:white;">S</text>
        <text x="234.922px" y="202.539px" style="font-family:'Charter-Italic', 'Charter', serif;font-style:italic;font-size:96px;fill:white;">U</text>
        <text x="234.922px" y="278.79px" style="font-family:'Charter-Italic', 'Charter', serif;font-style:italic;font-size:96px;fill:white;">B</text>
        <text x="234.922px" y="355.04px" style="font-family:'Charter-Italic', 'Charter', serif;font-style:italic;font-size:96px;fill:white;">S</text>
    </g>
</svg>
