<?xml version="1.0" encoding="UTF-8" standalone="no"?>
<!DOCTYPE svg PUBLIC "-//W3C//DTD SVG 1.1//EN" "http://www.w3.org/Graphics/SVG/1.1/DTD/svg11.dtd">
<svg width="100%" height="100%" viewBox="0 0 512 512" version="1.1" xmlns="http://www.w3.org/2000/svg" xmlns:xlink="http://www.w3.org/1999/xlink" xml:space="preserve" xmlns:serif="http://www.serif.com/" style="fill-rule:evenodd;clip-rule:evenodd;stroke-linejoin:round;stroke-miterlimit:2;">
    <path d="M487.659,7.439L462.334,7.439C456.32,7.439 451.445,12.179 451.445,18.028L451.445,31.205C451.445,37.053 446.57,41.794 440.556,41.794L416.943,41.794C410.929,41.794 406.054,37.053 406.054,31.205L406.054,18.028C406.054,12.179 401.179,7.439 395.165,7.439L110.854,7.439C104.84,7.439 99.964,12.179 99.964,18.028L99.964,31.205C99.964,37.053 95.089,41.794 89.075,41.794L65.462,41.794C59.448,41.794 54.573,37.053 54.573,31.205L54.573,18.028C54.573,12.179 49.698,7.439 43.684,7.439L19.211,7.439C13.197,7.439 8.322,12.179 8.322,18.028L8.322,494.517C8.322,500.365 13.197,505.105 19.211,505.105L43.684,505.105C49.698,505.105 54.573,500.365 54.573,494.517L54.573,484.836C54.573,478.988 59.448,474.247 65.462,474.247L89.075,474.247C95.089,474.247 99.964,478.988 99.964,484.836L99.964,494.517C99.964,500.365 104.84,505.105 110.854,505.105L395.165,505.105C401.179,505.105 406.054,500.365 406.054,494.517L406.054,484.836C406.054,478.988 410.929,474.247 416.943,474.247L440.556,474.247C446.57,474.247 451.445,478.988 451.445,484.836L451.445,494.517C451.445,500.365 456.32,505.105 462.334,505.105L487.659,505.105C493.673,505.105 498.548,500.365 498.548,494.517L498.548,18.028C498.548,12.18 493.673,7.439 487.659,7.439ZM99.964,412.65C99.964,418.498 95.089,423.239 89.075,423.239L65.462,423.239C59.448,423.239 54.573,418.498 54.573,412.65L54.573,389.688C54.573,383.841 59.448,379.1 65.462,379.1L89.075,379.1C95.089,379.1 99.964,383.841 99.964,389.688L99.964,412.65ZM99.964,317.503C99.964,323.35 95.089,328.091 89.075,328.091L65.462,328.091C59.448,328.091 54.573,323.35 54.573,317.503L54.573,294.541C54.573,288.693 59.448,283.952 65.462,283.952L89.075,283.952C95.089,283.952 99.964,288.693 99.964,294.541L99.964,317.503ZM99.964,222.355C99.964,228.203 95.089,232.943 89.075,232.943L65.462,232.943C59.448,232.943 54.573,228.203 54.573,222.355L54.573,199.393C54.573,193.545 59.448,188.804 65.462,188.804L89.075,188.804C95.089,188.804 99.964,193.545 99.964,199.393L99.964,222.355ZM99.964,127.207C99.964,133.055 95.089,137.796 89.075,137.796L65.462,137.796C59.448,137.796 54.573,133.055 54.573,127.207L54.573,104.246C54.573,98.398 59.448,93.657 65.462,93.657L89.075,93.657C95.089,93.657 99.964,98.398 99.964,104.246L99.964,127.207ZM358.97,449.127C358.97,454.975 354.095,459.715 348.081,459.715L158.789,459.715C152.775,459.715 147.9,454.975 147.9,449.127L147.9,364.035C147.9,358.187 152.775,353.447 158.789,353.447L348.081,353.447C354.095,353.447 358.97,358.187 358.97,364.035L358.97,449.127ZM358.97,298.818C358.97,304.666 354.095,309.406 348.081,309.406L158.789,309.406C152.775,309.406 147.9,304.666 147.9,298.818L147.9,213.726C147.9,207.879 152.775,203.138 158.789,203.138L348.081,203.138C354.095,203.138 358.97,207.879 358.97,213.726L358.97,298.818ZM358.97,148.508C358.97,154.356 354.095,159.097 348.081,159.097L158.789,159.097C152.775,159.097 147.9,154.356 147.9,148.508L147.9,63.417C147.9,57.569 152.775,52.828 158.789,52.828L348.081,52.828C354.095,52.828 358.97,57.569 358.97,63.417L358.97,148.508ZM451.445,412.65C451.445,418.498 446.57,423.239 440.556,423.239L416.943,423.239C410.929,423.239 406.054,418.498 406.054,412.65L406.054,389.688C406.054,383.841 410.929,379.1 416.943,379.1L440.556,379.1C446.57,379.1 451.445,383.841 451.445,389.688L451.445,412.65ZM451.445,317.503C451.445,323.35 446.57,328.091 440.556,328.091L416.943,328.091C410.929,328.091 406.054,323.35 406.054,317.503L406.054,294.541C406.054,288.693 410.929,283.952 416.943,283.952L440.556,283.952C446.57,283.952 451.445,288.693 451.445,294.541L451.445,317.503ZM451.445,222.355C451.445,228.203 446.57,232.943 440.556,232.943L416.943,232.943C410.929,232.943 406.054,228.203 406.054,222.355L406.054,199.393C406.054,193.545 410.929,188.804 416.943,188.804L440.556,188.804C446.57,188.804 451.445,193.545 451.445,199.393L451.445,222.355ZM451.445,127.207C451.445,133.055 446.57,137.796 440.556,137.796L416.943,137.796C410.929,137.796 406.054,133.055 406.054,127.207L406.054,104.246C406.054,98.398 410.929,93.657 416.943,93.657L440.556,93.657C446.57,93.657 451.445,98.398 451.445,104.246L451.445,127.207Z" style="fill-rule:nonzero;"/>
    <rect x="134.692" y="46.333" width="240.206" height="422.905"/>
    <g transform="matrix(1.56143,0,0,1.56143,-161.501,-67.7858)">
        <g transform="matrix(96,0,0,96,234.922,126.288)">
            <path d="M0.511,-0.653L0.479,-0.501L0.435,-0.501L0.439,-0.6L0.427,-0.618C0.413,-0.624 0.399,-0.629 0.384,-0.632C0.37,-0.636 0.355,-0.637 0.34,-0.637C0.295,-0.637 0.257,-0.624 0.227,-0.599C0.197,-0.573 0.182,-0.541 0.182,-0.503C0.182,-0.456 0.223,-0.414 0.304,-0.377L0.314,-0.372C0.372,-0.345 0.412,-0.319 0.433,-0.294C0.453,-0.269 0.464,-0.239 0.464,-0.202C0.464,-0.14 0.438,-0.089 0.388,-0.049C0.337,-0.008 0.272,0.012 0.193,0.012C0.159,0.012 0.127,0.008 0.096,0C0.066,-0.007 0.036,-0.019 0.009,-0.034L0.042,-0.193L0.094,-0.193L0.084,-0.078L0.094,-0.065C0.114,-0.055 0.133,-0.048 0.151,-0.043C0.169,-0.038 0.187,-0.036 0.205,-0.036C0.257,-0.036 0.298,-0.049 0.329,-0.076C0.36,-0.102 0.376,-0.138 0.376,-0.182C0.376,-0.221 0.344,-0.257 0.281,-0.289C0.274,-0.292 0.269,-0.294 0.266,-0.296C0.196,-0.332 0.15,-0.362 0.129,-0.386C0.108,-0.41 0.097,-0.438 0.097,-0.47C0.097,-0.532 0.12,-0.582 0.166,-0.622C0.212,-0.662 0.272,-0.682 0.344,-0.682C0.374,-0.682 0.402,-0.68 0.43,-0.675C0.458,-0.67 0.485,-0.663 0.511,-0.653Z" style="fill:white;fill-rule:nonzero;"/>
        </g>
        <g transform="matrix(96,0,0,96,234.922,202.539)">
            <path d="M0.073,-0.671L0.316,-0.671L0.316,-0.633L0.251,-0.628L0.235,-0.613L0.164,-0.249C0.161,-0.234 0.159,-0.22 0.157,-0.207C0.156,-0.194 0.155,-0.183 0.155,-0.174C0.155,-0.134 0.167,-0.103 0.191,-0.082C0.216,-0.06 0.251,-0.05 0.297,-0.05C0.356,-0.05 0.401,-0.065 0.433,-0.096C0.465,-0.126 0.487,-0.177 0.501,-0.249L0.572,-0.613L0.56,-0.628L0.495,-0.633L0.495,-0.671L0.704,-0.671L0.704,-0.633L0.641,-0.628L0.624,-0.613L0.551,-0.24L0.551,-0.238C0.535,-0.156 0.51,-0.098 0.477,-0.064C0.453,-0.04 0.424,-0.021 0.388,-0.008C0.352,0.005 0.312,0.011 0.269,0.011C0.203,0.011 0.152,-0.003 0.117,-0.031C0.082,-0.059 0.064,-0.099 0.064,-0.152C0.064,-0.161 0.065,-0.172 0.067,-0.185C0.068,-0.198 0.072,-0.216 0.076,-0.24L0.148,-0.613L0.137,-0.628L0.073,-0.633L0.073,-0.671Z" style="fill:white;fill-rule:nonzero;"/>
        </g>
        <g transform="matrix(96,0,0,96,234.922,278.79)">
            <path d="M0.137,-0.044C0.149,-0.043 0.16,-0.042 0.171,-0.042C0.182,-0.041 0.192,-0.041 0.203,-0.041C0.277,-0.041 0.333,-0.056 0.37,-0.085C0.407,-0.114 0.426,-0.158 0.426,-0.216C0.426,-0.254 0.413,-0.282 0.388,-0.3C0.362,-0.318 0.322,-0.327 0.268,-0.327C0.261,-0.327 0.251,-0.327 0.239,-0.326C0.227,-0.325 0.211,-0.324 0.191,-0.322L0.137,-0.044ZM0.199,-0.369C0.21,-0.368 0.22,-0.367 0.228,-0.367C0.236,-0.366 0.243,-0.366 0.25,-0.366C0.31,-0.366 0.357,-0.382 0.392,-0.412C0.426,-0.443 0.444,-0.484 0.444,-0.536C0.444,-0.569 0.432,-0.593 0.409,-0.608C0.386,-0.624 0.35,-0.632 0.302,-0.632C0.295,-0.632 0.288,-0.632 0.279,-0.631C0.27,-0.631 0.259,-0.63 0.247,-0.629L0.199,-0.369ZM0.084,-0.671L0.341,-0.671C0.41,-0.671 0.461,-0.661 0.494,-0.64C0.527,-0.62 0.543,-0.589 0.543,-0.546C0.543,-0.498 0.528,-0.458 0.498,-0.426C0.468,-0.394 0.424,-0.37 0.366,-0.356C0.418,-0.353 0.457,-0.341 0.484,-0.318C0.511,-0.296 0.524,-0.264 0.524,-0.223C0.524,-0.148 0.499,-0.092 0.449,-0.055C0.399,-0.018 0.323,-0 0.222,-0L-0.028,-0L-0.028,-0.038L0.035,-0.044L0.052,-0.058L0.158,-0.613L0.148,-0.628L0.084,-0.633L0.084,-0.671Z" style="fill:white;fill-rule:nonzero;"/>
        </g>
        <g transform="matrix(96,0,0,96,234.922,355.04)">
            <path d="M0.511,-0.653L0.479,-0.501L0.435,-0.501L0.439,-0.6L0.427,-0.618C0.413,-0.624 0.399,-0.629 0.384,-0.632C0.37,-0.636 0.355,-0.637 0.34,-0.637C0.295,-0.637 0.257,-0.624 0.227,-0.599C0.197,-0.573 0.182,-0.541 0.182,-0.503C0.182,-0.456 0.223,-0.414 0.304,-0.377L0.314,-0.372C0.372,-0.345 0.412,-0.319 0.433,-0.294C0.453,-0.269 0.464,-0.239 0.464,-0.202C0.464,-0.14 0.438,-0.089 0.388,-0.049C0.337,-0.008 0.272,0.012 0.193,0.012C0.159,0.012 0.127,0.008 0.096,0C0.066,-0.007 0.036,-0.019 0.009,-0.034L0.042,-0.193L0.094,-0.193L0.084,-0.078L0.094,-0.065C0.114,-0.055 0.133,-0.048 0.151,-0.043C0.169,-0.038 0.187,-0.036 0.205,-0.036C0.257,-0.036 0.298,-0.049 0.329,-0.076C0.36,-0.102 0.376,-0.138 0.376,-0.182C0.376,-0.221 0.344,-0.257 0.281,-0.289C0.274,-0.292 0.269,-0.294 0.266,-0.296C0.196,-0.332 0.15,-0.362 0.129,-0.386C0.108,-0.41 0.097,-0.438 0.097,-0.47C0.097,-0.532 0.12,-0.582 0.166,-0.622C0.212,-0.662 0.272,-0.682 0.344,-0.682C0.374,-0.682 0.402,-0.68 0.43,-0.675C0.458,-0.67 0.485,-0.663 0.511,-0.653Z" style="fill:white;fill-rule:nonzero;"/>
        </g>
    </g>
</svg>
