<?xml version="1.0" encoding="UTF-8" standalone="no"?>
<!DOCTYPE svg PUBLIC "-//W3C//DTD SVG 1.1//EN" "http://www.w3.org/Graphics/SVG/1.1/DTD/svg11.dtd">
<svg width="100%" height="100%" viewBox="0 0 512 512" version="1.1" xmlns="http://www.w3.org/2000/svg" xmlns:xlink="http://www.w3.org/1999/xlink" xml:space="preserve" xmlns:serif="http://www.serif.com/" style="fill-rule:evenodd;clip-rule:evenodd;stroke-linejoin:round;stroke-miterlimit:2;">
    <path d="M490.8,11.831L465.413,11.831C459.384,11.831 454.497,16.482 454.497,22.221L454.497,35.151C454.497,40.889 449.61,45.541 443.581,45.541L419.91,45.541C413.881,45.541 408.994,40.889 408.994,35.151L408.994,22.221C408.994,16.482 404.108,11.831 398.078,11.831L113.068,11.831C107.039,11.831 102.152,16.482 102.152,22.221L102.152,35.151C102.152,40.889 97.265,45.541 91.236,45.541L67.565,45.541C61.536,45.541 56.649,40.889 56.649,35.151L56.649,22.221C56.649,16.482 51.762,11.831 45.733,11.831L21.2,11.831C15.171,11.831 10.284,16.482 10.284,22.221L10.284,489.779C10.284,495.518 15.171,500.169 21.2,500.169L45.733,500.169C51.762,500.169 56.649,495.518 56.649,489.779L56.649,480.28C56.649,474.542 61.536,469.89 67.565,469.89L91.236,469.89C97.265,469.89 102.152,474.542 102.152,480.28L102.152,489.779C102.152,495.518 107.039,500.169 113.068,500.169L398.078,500.169C404.108,500.169 408.994,495.518 408.994,489.779L408.994,480.28C408.994,474.542 413.881,469.89 419.91,469.89L443.581,469.89C449.61,469.89 454.497,474.542 454.497,480.28L454.497,489.779C454.497,495.518 459.384,500.169 465.413,500.169L490.8,500.169C496.829,500.169 501.716,495.518 501.716,489.779L501.716,22.221C501.716,16.483 496.829,11.831 490.8,11.831ZM102.152,409.447C102.152,415.186 97.265,419.837 91.236,419.837L67.565,419.837C61.536,419.837 56.649,415.186 56.649,409.447L56.649,386.916C56.649,381.178 61.536,376.526 67.565,376.526L91.236,376.526C97.265,376.526 102.152,381.178 102.152,386.916L102.152,409.447ZM102.152,316.083C102.152,321.821 97.265,326.473 91.236,326.473L67.565,326.473C61.536,326.473 56.649,321.821 56.649,316.083L56.649,293.551C56.649,287.813 61.536,283.161 67.565,283.161L91.236,283.161C97.265,283.161 102.152,287.813 102.152,293.551L102.152,316.083ZM102.152,222.718C102.152,228.457 97.265,233.108 91.236,233.108L67.565,233.108C61.536,233.108 56.649,228.457 56.649,222.718L56.649,200.187C56.649,194.449 61.536,189.797 67.565,189.797L91.236,189.797C97.265,189.797 102.152,194.449 102.152,200.187L102.152,222.718ZM102.152,129.354C102.152,135.092 97.265,139.744 91.236,139.744L67.565,139.744C61.536,139.744 56.649,135.092 56.649,129.354L56.649,106.823C56.649,101.085 61.536,96.433 67.565,96.433L91.236,96.433C97.265,96.433 102.152,101.085 102.152,106.823L102.152,129.354ZM361.795,445.24C361.795,450.979 356.907,455.63 350.879,455.63L161.121,455.63C155.093,455.63 150.205,450.979 150.205,445.24L150.205,361.744C150.205,356.005 155.093,351.353 161.121,351.353L350.879,351.353C356.907,351.353 361.795,356.005 361.795,361.744L361.795,445.24ZM361.795,297.748C361.795,303.487 356.907,308.138 350.879,308.138L161.121,308.138C155.093,308.138 150.205,303.487 150.205,297.748L150.205,214.252C150.205,208.514 155.093,203.862 161.121,203.862L350.879,203.862C356.907,203.862 361.795,208.514 361.795,214.252L361.795,297.748ZM361.795,150.256C361.795,155.994 356.907,160.646 350.879,160.646L161.121,160.646C155.093,160.646 150.205,155.994 150.205,150.256L150.205,66.759C150.205,61.021 155.093,56.369 161.121,56.369L350.879,56.369C356.907,56.369 361.795,61.021 361.795,66.759L361.795,150.256ZM454.498,409.447C454.498,415.186 449.611,419.837 443.582,419.837L419.911,419.837C413.882,419.837 408.995,415.186 408.995,409.447L408.995,386.916C408.995,381.178 413.882,376.526 419.911,376.526L443.582,376.526C449.611,376.526 454.498,381.178 454.498,386.916L454.498,409.447ZM454.498,316.083C454.498,321.821 449.611,326.473 443.582,326.473L419.911,326.473C413.882,326.473 408.995,321.821 408.995,316.083L408.995,293.551C408.995,287.813 413.882,283.161 419.911,283.161L443.582,283.161C449.611,283.161 454.498,287.813 454.498,293.551L454.498,316.083ZM454.498,222.718C454.498,228.457 449.611,233.108 443.582,233.108L419.911,233.108C413.882,233.108 408.995,228.457 408.995,222.718L408.995,200.187C408.995,194.449 413.882,189.797 419.911,189.797L443.582,189.797C449.611,189.797 454.498,194.449 454.498,200.187L454.498,222.718ZM454.498,129.354C454.498,135.092 449.611,139.744 443.582,139.744L419.911,139.744C413.882,139.744 408.995,135.092 408.995,129.354L408.995,106.823C408.995,101.085 413.882,96.433 419.911,96.433L443.582,96.433C449.611,96.433 454.498,101.085 454.498,106.823L454.498,129.354Z" style="fill-rule:nonzero;"/>
    <path d="M490.8,3.331L465.413,3.331C454.576,3.331 445.997,11.906 445.997,22.221L445.997,35.151C445.997,36.319 444.808,37.041 443.581,37.041C443.581,37.041 419.91,37.041 419.91,37.041C418.683,37.041 417.494,36.319 417.494,35.151C417.494,35.151 417.494,22.221 417.494,22.221C417.494,11.906 408.916,3.331 398.078,3.331C398.078,3.331 113.068,3.331 113.068,3.331C102.231,3.331 93.652,11.906 93.652,22.221C93.652,22.221 93.652,35.151 93.652,35.151C93.652,36.319 92.463,37.041 91.236,37.041C91.236,37.041 67.565,37.041 67.565,37.041C66.338,37.041 65.149,36.319 65.149,35.151C65.149,35.151 65.149,22.221 65.149,22.221C65.149,11.906 56.57,3.331 45.733,3.331C45.733,3.331 21.2,3.331 21.2,3.331C10.363,3.331 1.784,11.906 1.784,22.221L1.784,489.779C1.784,500.094 10.363,508.669 21.2,508.669L45.733,508.669C56.57,508.669 65.149,500.094 65.149,489.779C65.149,489.779 65.149,480.28 65.149,480.28C65.149,479.112 66.338,478.39 67.565,478.39C67.565,478.39 91.236,478.39 91.236,478.39C92.463,478.39 93.652,479.112 93.652,480.28C93.652,480.28 93.652,489.779 93.652,489.779C93.652,500.094 102.231,508.669 113.068,508.669L398.078,508.669C408.916,508.669 417.494,500.094 417.494,489.779C417.494,489.779 417.494,480.28 417.494,480.28C417.494,479.112 418.683,478.39 419.91,478.39C419.91,478.39 443.581,478.39 443.581,478.39C444.808,478.39 445.997,479.112 445.997,480.28L445.997,489.779C445.997,500.094 454.576,508.669 465.413,508.669L490.8,508.669C501.637,508.669 510.216,500.094 510.216,489.779C510.216,489.779 510.216,22.221 510.216,22.221C510.216,11.907 501.637,3.331 490.8,3.331ZM490.8,11.831L465.413,11.831C459.384,11.831 454.497,16.482 454.497,22.221L454.497,35.151C454.497,40.889 449.61,45.541 443.581,45.541L419.91,45.541C413.881,45.541 408.994,40.889 408.994,35.151L408.994,22.221C408.994,16.482 404.108,11.831 398.078,11.831L113.068,11.831C107.039,11.831 102.152,16.482 102.152,22.221L102.152,35.151C102.152,40.889 97.265,45.541 91.236,45.541L67.565,45.541C61.536,45.541 56.649,40.889 56.649,35.151L56.649,22.221C56.649,16.482 51.762,11.831 45.733,11.831L21.2,11.831C15.171,11.831 10.284,16.482 10.284,22.221L10.284,489.779C10.284,495.518 15.171,500.169 21.2,500.169L45.733,500.169C51.762,500.169 56.649,495.518 56.649,489.779L56.649,480.28C56.649,474.542 61.536,469.89 67.565,469.89L91.236,469.89C97.265,469.89 102.152,474.542 102.152,480.28L102.152,489.779C102.152,495.518 107.039,500.169 113.068,500.169L398.078,500.169C404.108,500.169 408.994,495.518 408.994,489.779L408.994,480.28C408.994,474.542 413.881,469.89 419.91,469.89L443.581,469.89C449.61,469.89 454.497,474.542 454.497,480.28L454.497,489.779C454.497,495.518 459.384,500.169 465.413,500.169L490.8,500.169C496.829,500.169 501.716,495.518 501.716,489.779L501.716,22.221C501.716,16.483 496.829,11.831 490.8,11.831ZM361.795,445.24C361.795,450.979 356.907,455.63 350.879,455.63L161.121,455.63C155.093,455.63 150.205,450.979 150.205,445.24L150.205,361.744C150.205,356.005 155.093,351.353 161.121,351.353L350.879,351.353C356.907,351.353 361.795,356.005 361.795,361.744L361.795,445.24ZM353.295,445.24C353.295,446.408 352.106,447.13 350.879,447.13L161.121,447.13C159.894,447.13 158.705,446.408 158.705,445.24L158.705,361.744C158.705,360.576 159.894,359.853 161.121,359.853C161.121,359.853 350.879,359.853 350.879,359.853C352.106,359.853 353.295,360.576 353.295,361.744C353.295,361.744 353.295,445.24 353.295,445.24ZM102.152,409.447C102.152,415.186 97.265,419.837 91.236,419.837L67.565,419.837C61.536,419.837 56.649,415.186 56.649,409.447L56.649,386.916C56.649,381.178 61.536,376.526 67.565,376.526L91.236,376.526C97.265,376.526 102.152,381.178 102.152,386.916L102.152,409.447ZM454.498,409.447C454.498,415.186 449.611,419.837 443.582,419.837L419.911,419.837C413.882,419.837 408.995,415.186 408.995,409.447L408.995,386.916C408.995,381.178 413.882,376.526 419.911,376.526L443.582,376.526C449.611,376.526 454.498,381.178 454.498,386.916L454.498,409.447ZM93.652,409.447C93.652,410.615 92.463,411.337 91.236,411.337L67.565,411.337C66.338,411.337 65.149,410.615 65.149,409.447C65.149,409.447 65.149,386.916 65.149,386.916C65.149,385.748 66.338,385.026 67.565,385.026C67.565,385.026 91.236,385.026 91.236,385.026C92.463,385.026 93.652,385.748 93.652,386.916C93.652,386.916 93.652,409.447 93.652,409.447ZM445.998,409.447C445.998,410.615 444.809,411.337 443.582,411.337L419.911,411.337C418.684,411.337 417.495,410.615 417.495,409.447C417.495,409.447 417.495,386.916 417.495,386.916C417.495,385.748 418.684,385.026 419.911,385.026C419.911,385.026 443.582,385.026 443.582,385.026C444.809,385.026 445.998,385.748 445.998,386.916C445.998,386.916 445.998,409.447 445.998,409.447ZM454.498,316.083C454.498,321.821 449.611,326.473 443.582,326.473L419.911,326.473C413.882,326.473 408.995,321.821 408.995,316.083L408.995,293.551C408.995,287.813 413.882,283.161 419.911,283.161L443.582,283.161C449.611,283.161 454.498,287.813 454.498,293.551L454.498,316.083ZM102.152,316.083C102.152,321.821 97.265,326.473 91.236,326.473L67.565,326.473C61.536,326.473 56.649,321.821 56.649,316.083L56.649,293.551C56.649,287.813 61.536,283.161 67.565,283.161L91.236,283.161C97.265,283.161 102.152,287.813 102.152,293.551L102.152,316.083ZM445.998,316.083C445.998,317.251 444.809,317.973 443.582,317.973C443.582,317.973 419.911,317.973 419.911,317.973C418.684,317.973 417.495,317.251 417.495,316.083C417.495,316.083 417.495,293.551 417.495,293.551C417.495,292.383 418.684,291.661 419.911,291.661C419.911,291.661 443.582,291.661 443.582,291.661C444.809,291.661 445.998,292.383 445.998,293.551C445.998,293.551 445.998,316.083 445.998,316.083ZM93.652,316.083C93.652,317.251 92.463,317.973 91.236,317.973C91.236,317.973 67.565,317.973 67.565,317.973C66.338,317.973 65.149,317.251 65.149,316.083C65.149,316.083 65.149,293.551 65.149,293.551C65.149,292.383 66.338,291.661 67.565,291.661C67.565,291.661 91.236,291.661 91.236,291.661C92.463,291.661 93.652,292.383 93.652,293.551C93.652,293.551 93.652,316.083 93.652,316.083ZM361.795,297.748C361.795,303.487 356.907,308.138 350.879,308.138L161.121,308.138C155.093,308.138 150.205,303.487 150.205,297.748L150.205,214.252C150.205,208.514 155.093,203.862 161.121,203.862L350.879,203.862C356.907,203.862 361.795,208.514 361.795,214.252L361.795,297.748ZM353.295,297.748C353.295,298.916 352.106,299.638 350.879,299.638C350.879,299.638 161.121,299.638 161.121,299.638C159.894,299.638 158.705,298.916 158.705,297.748L158.705,214.252C158.705,213.084 159.894,212.362 161.121,212.362L350.879,212.362C352.106,212.362 353.295,213.084 353.295,214.252C353.295,214.252 353.295,297.748 353.295,297.748ZM102.152,222.718C102.152,228.457 97.265,233.108 91.236,233.108L67.565,233.108C61.536,233.108 56.649,228.457 56.649,222.718L56.649,200.187C56.649,194.449 61.536,189.797 67.565,189.797L91.236,189.797C97.265,189.797 102.152,194.449 102.152,200.187L102.152,222.718ZM454.498,222.718C454.498,228.457 449.611,233.108 443.582,233.108L419.911,233.108C413.882,233.108 408.995,228.457 408.995,222.718L408.995,200.187C408.995,194.449 413.882,189.797 419.911,189.797L443.582,189.797C449.611,189.797 454.498,194.449 454.498,200.187L454.498,222.718ZM93.652,222.718C93.652,223.886 92.463,224.608 91.236,224.608L67.565,224.608C66.338,224.608 65.149,223.886 65.149,222.718C65.149,222.718 65.149,200.187 65.149,200.187C65.149,199.019 66.338,198.297 67.565,198.297L91.236,198.297C92.463,198.297 93.652,199.019 93.652,200.187C93.652,200.187 93.652,222.718 93.652,222.718ZM445.998,222.718C445.998,223.886 444.809,224.608 443.582,224.608L419.911,224.608C418.684,224.608 417.495,223.886 417.495,222.718C417.495,222.718 417.495,200.187 417.495,200.187C417.495,199.019 418.684,198.297 419.911,198.297L443.582,198.297C444.809,198.297 445.998,199.019 445.998,200.187C445.998,200.187 445.998,222.718 445.998,222.718ZM361.795,150.256C361.795,155.994 356.907,160.646 350.879,160.646L161.121,160.646C155.093,160.646 150.205,155.994 150.205,150.256L150.205,66.759C150.205,61.021 155.093,56.369 161.121,56.369L350.879,56.369C356.907,56.369 361.795,61.021 361.795,66.759L361.795,150.256ZM353.295,150.256C353.295,151.424 352.106,152.146 350.879,152.146L161.121,152.146C159.894,152.146 158.705,151.424 158.705,150.256L158.705,66.759C158.705,65.591 159.894,64.869 161.121,64.869L350.879,64.869C352.106,64.869 353.295,65.591 353.295,66.759C353.295,66.759 353.295,150.256 353.295,150.256ZM454.498,129.354C454.498,135.092 449.611,139.744 443.582,139.744L419.911,139.744C413.882,139.744 408.995,135.092 408.995,129.354L408.995,106.823C408.995,101.085 413.882,96.433 419.911,96.433L443.582,96.433C449.611,96.433 454.498,101.085 454.498,106.823L454.498,129.354ZM102.152,129.354C102.152,135.092 97.265,139.744 91.236,139.744L67.565,139.744C61.536,139.744 56.649,135.092 56.649,129.354L56.649,106.823C56.649,101.085 61.536,96.433 67.565,96.433L91.236,96.433C97.265,96.433 102.152,101.085 102.152,106.823L102.152,129.354ZM445.998,129.354C445.998,130.522 444.809,131.244 443.582,131.244L419.911,131.244C418.684,131.244 417.495,130.522 417.495,129.354C417.495,129.354 417.495,106.823 417.495,106.823C417.495,105.655 418.684,104.933 419.911,104.933C419.911,104.933 443.582,104.933 443.582,104.933C444.809,104.933 445.998,105.655 445.998,106.823C445.998,106.823 445.998,129.354 445.998,129.354ZM93.652,129.354C93.652,130.522 92.463,131.244 91.236,131.244L67.565,131.244C66.338,131.244 65.149,130.522 65.149,129.354C65.149,129.354 65.149,106.823 65.149,106.823C65.149,105.655 66.338,104.933 67.565,104.933C67.565,104.933 91.236,104.933 91.236,104.933C92.463,104.933 93.652,105.655 93.652,106.823C93.652,106.823 93.652,129.354 93.652,129.354Z" style="fill:white;"/>
    <rect x="134.692" y="46.333" width="240.206" height="422.905"/>
    <g transform="matrix(1.38753,0,0,1.38753,-115.002,-33.3112)">
        <g transform="matrix(96,0,0,96,234.922,126.288)">
            <path d="M0.511,-0.653L0.479,-0.501L0.435,-0.501L0.439,-0.6L0.427,-0.618C0.413,-0.624 0.399,-0.629 0.384,-0.632C0.37,-0.636 0.355,-0.637 0.34,-0.637C0.295,-0.637 0.257,-0.624 0.227,-0.599C0.197,-0.573 0.182,-0.541 0.182,-0.503C0.182,-0.456 0.223,-0.414 0.304,-0.377L0.314,-0.372C0.372,-0.345 0.412,-0.319 0.433,-0.294C0.453,-0.269 0.464,-0.239 0.464,-0.202C0.464,-0.14 0.438,-0.089 0.388,-0.049C0.337,-0.008 0.272,0.012 0.193,0.012C0.159,0.012 0.127,0.008 0.096,0C0.066,-0.007 0.036,-0.019 0.009,-0.034L0.042,-0.193L0.094,-0.193L0.084,-0.078L0.094,-0.065C0.114,-0.055 0.133,-0.048 0.151,-0.043C0.169,-0.038 0.187,-0.036 0.205,-0.036C0.257,-0.036 0.298,-0.049 0.329,-0.076C0.36,-0.102 0.376,-0.138 0.376,-0.182C0.376,-0.221 0.344,-0.257 0.281,-0.289C0.274,-0.292 0.269,-0.294 0.266,-0.296C0.196,-0.332 0.15,-0.362 0.129,-0.386C0.108,-0.41 0.097,-0.438 0.097,-0.47C0.097,-0.532 0.12,-0.582 0.166,-0.622C0.212,-0.662 0.272,-0.682 0.344,-0.682C0.374,-0.682 0.402,-0.68 0.43,-0.675C0.458,-0.67 0.485,-0.663 0.511,-0.653Z" style="fill:white;fill-rule:nonzero;"/>
        </g>
        <g transform="matrix(96,0,0,96,234.922,202.539)">
            <path d="M0.073,-0.671L0.316,-0.671L0.316,-0.633L0.251,-0.628L0.235,-0.613L0.164,-0.249C0.161,-0.234 0.159,-0.22 0.157,-0.207C0.156,-0.194 0.155,-0.183 0.155,-0.174C0.155,-0.134 0.167,-0.103 0.191,-0.082C0.216,-0.06 0.251,-0.05 0.297,-0.05C0.356,-0.05 0.401,-0.065 0.433,-0.096C0.465,-0.126 0.487,-0.177 0.501,-0.249L0.572,-0.613L0.56,-0.628L0.495,-0.633L0.495,-0.671L0.704,-0.671L0.704,-0.633L0.641,-0.628L0.624,-0.613L0.551,-0.24L0.551,-0.238C0.535,-0.156 0.51,-0.098 0.477,-0.064C0.453,-0.04 0.424,-0.021 0.388,-0.008C0.352,0.005 0.312,0.011 0.269,0.011C0.203,0.011 0.152,-0.003 0.117,-0.031C0.082,-0.059 0.064,-0.099 0.064,-0.152C0.064,-0.161 0.065,-0.172 0.067,-0.185C0.068,-0.198 0.072,-0.216 0.076,-0.24L0.148,-0.613L0.137,-0.628L0.073,-0.633L0.073,-0.671Z" style="fill:white;fill-rule:nonzero;"/>
        </g>
        <g transform="matrix(96,0,0,96,234.922,278.79)">
            <path d="M0.137,-0.044C0.149,-0.043 0.16,-0.042 0.171,-0.042C0.182,-0.041 0.192,-0.041 0.203,-0.041C0.277,-0.041 0.333,-0.056 0.37,-0.085C0.407,-0.114 0.426,-0.158 0.426,-0.216C0.426,-0.254 0.413,-0.282 0.388,-0.3C0.362,-0.318 0.322,-0.327 0.268,-0.327C0.261,-0.327 0.251,-0.327 0.239,-0.326C0.227,-0.325 0.211,-0.324 0.191,-0.322L0.137,-0.044ZM0.199,-0.369C0.21,-0.368 0.22,-0.367 0.228,-0.367C0.236,-0.366 0.243,-0.366 0.25,-0.366C0.31,-0.366 0.357,-0.382 0.392,-0.412C0.426,-0.443 0.444,-0.484 0.444,-0.536C0.444,-0.569 0.432,-0.593 0.409,-0.608C0.386,-0.624 0.35,-0.632 0.302,-0.632C0.295,-0.632 0.288,-0.632 0.279,-0.631C0.27,-0.631 0.259,-0.63 0.247,-0.629L0.199,-0.369ZM0.084,-0.671L0.341,-0.671C0.41,-0.671 0.461,-0.661 0.494,-0.64C0.527,-0.62 0.543,-0.589 0.543,-0.546C0.543,-0.498 0.528,-0.458 0.498,-0.426C0.468,-0.394 0.424,-0.37 0.366,-0.356C0.418,-0.353 0.457,-0.341 0.484,-0.318C0.511,-0.296 0.524,-0.264 0.524,-0.223C0.524,-0.148 0.499,-0.092 0.449,-0.055C0.399,-0.018 0.323,-0 0.222,-0L-0.028,-0L-0.028,-0.038L0.035,-0.044L0.052,-0.058L0.158,-0.613L0.148,-0.628L0.084,-0.633L0.084,-0.671Z" style="fill:white;fill-rule:nonzero;"/>
        </g>
        <g transform="matrix(96,0,0,96,234.922,355.04)">
            <path d="M0.511,-0.653L0.479,-0.501L0.435,-0.501L0.439,-0.6L0.427,-0.618C0.413,-0.624 0.399,-0.629 0.384,-0.632C0.37,-0.636 0.355,-0.637 0.34,-0.637C0.295,-0.637 0.257,-0.624 0.227,-0.599C0.197,-0.573 0.182,-0.541 0.182,-0.503C0.182,-0.456 0.223,-0.414 0.304,-0.377L0.314,-0.372C0.372,-0.345 0.412,-0.319 0.433,-0.294C0.453,-0.269 0.464,-0.239 0.464,-0.202C0.464,-0.14 0.438,-0.089 0.388,-0.049C0.337,-0.008 0.272,0.012 0.193,0.012C0.159,0.012 0.127,0.008 0.096,0C0.066,-0.007 0.036,-0.019 0.009,-0.034L0.042,-0.193L0.094,-0.193L0.084,-0.078L0.094,-0.065C0.114,-0.055 0.133,-0.048 0.151,-0.043C0.169,-0.038 0.187,-0.036 0.205,-0.036C0.257,-0.036 0.298,-0.049 0.329,-0.076C0.36,-0.102 0.376,-0.138 0.376,-0.182C0.376,-0.221 0.344,-0.257 0.281,-0.289C0.274,-0.292 0.269,-0.294 0.266,-0.296C0.196,-0.332 0.15,-0.362 0.129,-0.386C0.108,-0.41 0.097,-0.438 0.097,-0.47C0.097,-0.532 0.12,-0.582 0.166,-0.622C0.212,-0.662 0.272,-0.682 0.344,-0.682C0.374,-0.682 0.402,-0.68 0.43,-0.675C0.458,-0.67 0.485,-0.663 0.511,-0.653Z" style="fill:white;fill-rule:nonzero;"/>
        </g>
    </g>
</svg>
